<?xml version="1.0" encoding="UTF-8"?>
<svg xmlns="http://www.w3.org/2000/svg" xmlns:xlink="http://www.w3.org/1999/xlink" width="360px" height="360px" viewBox="0 0 360 360" version="1.2">
<g id="surface175270">
<path style="fill:none;stroke-width:20;stroke-linecap:round;stroke-linejoin:round;stroke:rgb(100%,100%,100%);stroke-opacity:1;stroke-miterlimit:10;" d="M 20 260 L 20 100 "/>
<path style=" stroke:none;fill-rule:evenodd;fill:rgb(100%,100%,100%);fill-opacity:1;" d="M 20 100 C 20 100 20 20 100 20 Z M 20 100 "/>
<path style="fill:none;stroke-width:20;stroke-linecap:round;stroke-linejoin:round;stroke:rgb(100%,100%,100%);stroke-opacity:1;stroke-miterlimit:10;" d="M 20 100 C 20 100 20 20 100 20 "/>
<path style="fill:none;stroke-width:20;stroke-linecap:round;stroke-linejoin:round;stroke:rgb(100%,100%,100%);stroke-opacity:1;stroke-miterlimit:10;" d="M 100 20 L 260 20 "/>
<path style=" stroke:none;fill-rule:evenodd;fill:rgb(100%,100%,100%);fill-opacity:1;" d="M 260 20 C 260 20 340 20 340 100 Z M 260 20 "/>
<path style="fill:none;stroke-width:20;stroke-linecap:round;stroke-linejoin:round;stroke:rgb(100%,100%,100%);stroke-opacity:1;stroke-miterlimit:10;" d="M 260 20 C 260 20 340 20 340 100 "/>
<path style="fill:none;stroke-width:20;stroke-linecap:round;stroke-linejoin:round;stroke:rgb(100%,100%,100%);stroke-opacity:1;stroke-miterlimit:10;" d="M 340 100 L 340 260 "/>
<path style=" stroke:none;fill-rule:evenodd;fill:rgb(100%,100%,100%);fill-opacity:1;" d="M 340 260 C 340 260 340 340 260 340 Z M 340 260 "/>
<path style="fill:none;stroke-width:20;stroke-linecap:round;stroke-linejoin:round;stroke:rgb(100%,100%,100%);stroke-opacity:1;stroke-miterlimit:10;" d="M 340 260 C 340 260 340 340 260 340 "/>
<path style="fill:none;stroke-width:20;stroke-linecap:round;stroke-linejoin:round;stroke:rgb(100%,100%,100%);stroke-opacity:1;stroke-miterlimit:10;" d="M 260 340 L 100 340 "/>
<path style=" stroke:none;fill-rule:evenodd;fill:rgb(100%,100%,100%);fill-opacity:1;" d="M 100 340 C 100 340 20 340 20 260 Z M 100 340 "/>
<path style="fill:none;stroke-width:20;stroke-linecap:round;stroke-linejoin:round;stroke:rgb(100%,100%,100%);stroke-opacity:1;stroke-miterlimit:10;" d="M 100 340 C 100 340 20 340 20 260 "/>
<path style=" stroke:none;fill-rule:evenodd;fill:rgb(100%,100%,100%);fill-opacity:1;" d="M 20 100 L 100 20 L 260 20 L 340 100 L 340 260 L 260 340 L 100 340 L 20 260 Z M 20 100 "/>
<path style="fill:none;stroke-width:20;stroke-linecap:round;stroke-linejoin:round;stroke:rgb(100%,100%,100%);stroke-opacity:1;stroke-miterlimit:10;" d="M 20 100 L 100 20 L 260 20 L 340 100 L 340 260 L 260 340 L 100 340 L 20 260 L 20 100 "/>
<path style=" stroke:none;fill-rule:evenodd;fill:rgb(0%,0%,0%);fill-opacity:1;" d="M 200 120 L 220 60 L 260 60 Z M 200 120 "/>
<path style="fill:none;stroke-width:20;stroke-linecap:round;stroke-linejoin:round;stroke:rgb(0%,0%,0%);stroke-opacity:1;stroke-miterlimit:10;" d="M 200 120 L 220 60 L 260 60 L 200 120 "/>
<path style=" stroke:none;fill-rule:evenodd;fill:rgb(0%,0%,0%);fill-opacity:1;" d="M 140 160 C 140 160 140 140 180 140 Z M 140 160 "/>
<path style="fill:none;stroke-width:20;stroke-linecap:round;stroke-linejoin:round;stroke:rgb(0%,0%,0%);stroke-opacity:1;stroke-miterlimit:10;" d="M 140 160 C 140 160 140 140 180 140 "/>
<path style=" stroke:none;fill-rule:evenodd;fill:rgb(0%,0%,0%);fill-opacity:1;" d="M 180 140 L 120 300 L 160 300 Z M 180 140 "/>
<path style="fill:none;stroke-width:20;stroke-linecap:round;stroke-linejoin:round;stroke:rgb(0%,0%,0%);stroke-opacity:1;stroke-miterlimit:10;" d="M 180 140 L 120 300 L 160 300 L 180 140 "/>
<path style=" stroke:none;fill-rule:evenodd;fill:rgb(0%,0%,0%);fill-opacity:1;" d="M 160 300 C 160 300 220 300 220 280 Z M 160 300 "/>
<path style="fill:none;stroke-width:20;stroke-linecap:round;stroke-linejoin:round;stroke:rgb(0%,0%,0%);stroke-opacity:1;stroke-miterlimit:10;" d="M 160 300 C 160 300 220 300 220 280 "/>
</g>
</svg>
